<?xml version="1.0" encoding="UTF-8"?>
<svg width="1200pt" height="1200pt" version="1.1" viewBox="0 0 1200 1200" xmlns="http://www.w3.org/2000/svg">
 <path d="m946.78 405.61c-21.609-38.391-62.391-111.61-147.61-164.39-27.609-16.781-133.22-81.609-194.39-38.391-19.219 13.219-28.781 33.609-33.609 50.391-9.6094-9.6094-31.219-27.609-60-27.609-27.609 0-49.219 16.781-70.781 37.219-39.609 37.219-76.781 72-111.61 142.78-49.219 97.219-54 182.39-55.219 214.78-1.2188 58.781-12 115.22 28.781 136.78 57.609 28.781 87.609 22.781 103.22 28.781-15.609-1.2188-43.219 30-67.219 26.391-36-4.7812-44.391-24-69.609-20.391-37.219 4.7812-70.781 54-72 102 0 40.781 24 69.609 30 76.781 30 32.391 80.391 51.609 126 36 32.391-12 49.219-36 56.391-48 32.391-48 22.781-100.78 20.391-112.78 2.3906 3.6094 13.219 20.391 32.391 22.781 9.6094 1.2188 22.781-2.3906 30-8.3906 3.6094 12 8.3906 18 20.391 30 3.6094 2.3906 32.391 30 66 31.219 24 0 32.391 7.2188 42 13.219s19.219 13.219 40.781 13.219c21.609 0 25.219-7.2188 33.609-13.219 4.7812-3.6094 8.3906-7.2188 14.391-8.3906 8.3906-2.3906 14.391-2.3906 19.219-2.3906 9.6094 0 18 0 33.609-12 14.391-8.3906 25.219-15.609 37.219-24 6-3.6094 15.609-15.609 26.391-32.391 7.2188 6 45.609-15.609 75.609-40.781 40.781-33.609 61.219-69.609 66-78 28.781-51.609 32.391-98.391 33.609-120 7.2188-94.781-32.391-165.61-55.219-207.61zm-4.7812 262.78c-15.609 26.391-40.781 19.219-54 14.391v-4.7812c0-3.6094-2.3906-6-4.7812-7.2188-3.6094 0-6 1.2188-7.2188 4.7812-18 120-69.609 190.78-82.781 199.22-12 8.3906-22.781 15.609-37.219 24-13.219 9.6094-19.219 9.6094-28.781 10.781-4.7812 0-12 0-21.609 3.6094-8.3906 2.3906-13.219 7.2188-18 10.781-7.2188 6-13.219 10.781-26.391 10.781-18 0-25.219-4.7812-33.609-10.781-9.6094-7.2188-21.609-14.391-48-15.609-24 0-48-18-58.781-27.609-14.391-13.219-15.609-18-21.609-39.609-1.2188-6-3.6094-13.219-6-21.609l-2.3906-7.2188c-10.781-33.609-25.219-85.219-36-132 0-3.6094-3.6094-4.7812-7.2188-4.7812s-4.7812 3.6094-4.7812 7.2188v3.6094c-9.6094 7.2188-28.781 20.391-50.391 7.2188-22.781-14.391-21.609-70.781-18-92.391 4.7812-31.219 9.6094-56.391 32.391-62.391 10.781-2.3906 20.391 10.781 27.609 13.219 3.6094-18 20.391-115.22 78-144 34.781-16.781 58.781-7.2188 76.781-27.609 12-14.391 12-34.781 10.781-49.219 14.391 10.781 38.391 25.219 68.391 34.781 28.781 9.6094 43.219 7.2188 79.219 13.219 48 8.3906 80.391 14.391 103.22 32.391 46.781 38.391 36 112.78 32.391 139.22 8.3906-20.391 20.391-24 32.391-22.781 2.3906 0 9.6094 1.2188 18 16.781 4.7812 8.3906 30 81.609 6 122.39z"/>
 <path d="m913.22 597.61c0-6 7.2188-10.781 12-14.391 2.3906-1.2188 3.6094-6 2.3906-8.3906-2.3906-2.3906-6-3.6094-8.3906-2.3906-12 7.2188-18 15.609-18 24s4.7812 14.391 8.3906 19.219c3.6094 3.6094 6 7.2188 6 12s-3.6094 9.6094-10.781 14.391c-2.3906 2.3906-3.6094 6 0 8.3906 0 1.2188 2.3906 2.3906 4.7812 2.3906s2.3906 0 3.6094-1.2188c3.6094-2.3906 15.609-12 15.609-24 0-8.3906-4.7812-14.391-9.6094-19.219-3.6094-4.7812-6-7.2188-6-10.781z"/>
 <path d="m428.39 596.39c0-8.3906-6-16.781-18-24-2.3906-2.3906-6 0-8.3906 2.3906-1.2188 2.3906 0 6 2.3906 8.3906 6 3.6094 12 8.3906 12 14.391 0 3.6094-2.3906 6-6 10.781s-9.6094 10.781-9.6094 19.219c0 12 10.781 21.609 15.609 24 0 0 2.3906 1.2188 3.6094 1.2188 2.3906 0 3.6094 0 4.7812-2.3906 2.3906-2.3906 1.2188-6 0-8.3906-7.2188-4.7812-10.781-9.6094-10.781-14.391 0-3.6094 2.3906-7.2188 6-12 4.7812-4.7812 9.6094-10.781 8.3906-19.219z"/>
 <path d="m554.39 537.61c21.609-4.7812 39.609-1.2188 51.609 1.2188 3.6094 0 6 0 7.2188-3.6094 0-3.6094 0-6-3.6094-7.2188-13.219-3.6094-33.609-7.2188-56.391-1.2188-18 3.6094-36 12-50.391 24-2.3906 2.3906-3.6094 6 0 8.3906 0 1.2188 2.3906 2.3906 4.7812 2.3906s2.3906 0 3.6094-1.2188c13.219-10.781 28.781-18 45.609-21.609z"/>
 <path d="m784.78 531.61c-18-4.7812-37.219-4.7812-56.391 0-3.6094 0-4.7812 3.6094-4.7812 7.2188s3.6094 4.7812 7.2188 4.7812c16.781-3.6094 33.609-3.6094 50.391 0s32.391 12 45.609 22.781c0 0 2.3906 1.2188 3.6094 1.2188s3.6094 0 4.7812-2.3906c2.3906-2.3906 2.3906-6 0-8.3906-14.391-12-32.391-21.609-50.391-25.219z"/>
 <path d="m560.39 619.22h6c27.609 0 46.781-8.3906 51.609-10.781 4.7812-2.3906 3.6094-4.7812 2.3906-8.3906-1.2188-2.3906-4.7812-3.6094-8.3906-2.3906s-22.781 10.781-51.609 9.6094c-21.609 0-34.781-7.2188-40.781-9.6094-2.3906-1.2188-6 0-8.3906 2.3906-1.2188 2.3906 0 6 2.3906 8.3906 1.2188 0 3.6094 2.3906 7.2188 3.6094l-9.6094 3.6094c-3.6094 1.2188-4.7812 4.7812-3.6094 8.3906 0 2.3906 3.6094 3.6094 6 3.6094h2.3906l21.609-9.6094c6 1.2188 13.219 2.3906 21.609 2.3906z"/>
 <path d="m609.61 742.78c-1.2188 2.3906 0 6 2.3906 8.3906 1.2188 0 25.219 15.609 49.219 15.609s16.781-1.2188 24-6c12-8.3906 21.609-21.609 27.609-38.391 0-3.6094 0-6-3.6094-7.2188-3.6094 0-6 0-7.2188 3.6094-4.7812 14.391-13.219 26.391-22.781 32.391-16.781 10.781-43.219 0-54-6 6-10.781 20.391-34.781 32.391-61.219 16.781-34.781 20.391-78 13.219-128.39 0-3.6094-3.6094-6-7.2188-4.7812-3.6094 0-6 3.6094-4.7812 7.2188 7.2188 48 3.6094 88.781-12 121.22-16.781 34.781-34.781 66-34.781 66z"/>
 <path d="m832.78 615.61-9.6094-4.7812c2.3906 0 4.7812-2.3906 4.7812-2.3906 2.3906-1.2188 3.6094-4.7812 2.3906-8.3906-1.2188-2.3906-4.7812-3.6094-8.3906-2.3906s-22.781 10.781-51.609 9.6094c-21.609 0-34.781-7.2188-40.781-9.6094-2.3906-1.2188-6 0-8.3906 2.3906-1.2188 2.3906 0 6 2.3906 8.3906 6 3.6094 21.609 10.781 45.609 12h6c10.781 0 20.391-1.2188 28.781-3.6094l21.609 9.6094h2.3906c2.3906 0 4.7812-1.2188 6-3.6094 1.2188-3.6094 0-6-3.6094-8.3906z"/>
 <path d="m670.78 706.78c-1.2188-2.3906-4.7812-3.6094-8.3906-2.3906-2.3906 1.2188-3.6094 4.7812-2.3906 8.3906l2.3906 4.7812s-1.2188 0-2.3906 1.2188l-4.7812 2.3906c-2.3906 1.2188-3.6094 6-2.3906 8.3906 0 1.2188 3.6094 2.3906 4.7812 2.3906h3.6094l4.7812-2.3906h1.2188l2.3906 4.7812c0 2.3906 3.6094 3.6094 4.7812 3.6094h2.3906c2.3906-1.2188 3.6094-4.7812 2.3906-8.3906l-2.3906-4.7812c2.3906-1.2188 4.7812-2.3906 6-3.6094 2.3906-1.2188 3.6094-6 2.3906-8.3906s-6-3.6094-8.3906-2.3906-3.6094 2.3906-6 3.6094l-2.3906-4.7812z"/>
 <path d="m768 780v1.2188c-8.3906 12-18 21.609-27.609 30-4.7812 4.7812-9.6094 9.6094-14.391 15.609l-10.781 10.781c-13.219 15.609-15.609 16.781-21.609 20.391-3.6094 1.2188-7.2188 2.3906-12 2.3906-12 0-28.781-6-63.609-25.219-34.781-19.219-49.219-28.781-55.219-34.781-3.6094-3.6094-3.6094-4.7812-2.3906-7.2188 0-2.3906 2.3906-3.6094 3.6094-3.6094 2.3906 0 4.7812 0 7.2188 2.3906 7.2188 4.7812 30 21.609 60 30 14.391 3.6094 44.391 10.781 75.609-3.6094 8.3906-3.6094 16.781-8.3906 24-15.609 3.6094-3.6094 7.2188-8.3906 10.781-10.781 7.2188-7.2188 13.219-14.391 15.609-16.781 1.2188-2.3906 2.3906-3.6094 6-3.6094 2.3906 0 3.6094 0 4.7812 2.3906 1.2188 2.3906 2.3906 3.6094 0 7.2188z"/>
</svg>
