<?xml version="1.0" encoding="UTF-8"?>
<svg width="1200pt" height="1200pt" version="1.1" viewBox="0 0 1200 1200" xmlns="http://www.w3.org/2000/svg">
 <path d="m554.39 703.22c0 1.2188 2.3906 2.3906 4.7812 2.3906h1.2188l61.219-15.609c3.6094 0 4.7812-3.6094 4.7812-7.2188s-3.6094-4.7812-7.2188-4.7812l-49.219 12c6-14.391 10.781-27.609 15.609-42 9.6094-31.219 15.609-63.609 16.781-96 0-3.6094-2.3906-6-6-6s-6 2.3906-6 6c-1.2188 31.219-7.2188 63.609-16.781 93.609-6 18-12 34.781-20.391 51.609v6z"/>
 <path d="m512.39 552c-9.6094 0-16.781 7.2188-16.781 16.781 0 9.6094 7.2188 16.781 16.781 16.781 9.6094 0 16.781-7.2188 16.781-16.781 0-9.6094-7.2188-16.781-16.781-16.781z"/>
 <path d="m676.78 552c-9.6094 0-16.781 7.2188-16.781 16.781 0 9.6094 7.2188 16.781 16.781 16.781 9.6094 0 16.781-7.2188 16.781-16.781 0-9.6094-7.2188-16.781-16.781-16.781z"/>
 <path d="m564 522s2.3906 0 1.2188-3.6094c0-3.6094-4.7812-14.391-9.6094-10.781h-2.3906c-15.609 12-34.781 15.609-54 15.609-3.6094 0-8.3906-1.2188-14.391 0-6 0-10.781 3.6094-14.391 7.2188-2.3906 2.3906-14.391 14.391-6 14.391 7.2188-3.6094 13.219-12 20.391-10.781 7.2188 0 19.219 3.6094 26.391 3.6094 18 0 36-4.7812 51.609-13.219z"/>
 <path d="m675.61 703.22c-30 44.391-69.609 70.781-124.78 60-6 0-9.6094 7.2188-4.7812 10.781 55.219 44.391 138 0 141.61-67.219 0-6-8.3906-9.6094-10.781-3.6094z"/>
 <path d="m922.78 690c-30 31.219-45.609-2.3906-55.219-56.391 7.2188 26.391 18 42 33.609 45.609h6c13.219 0 26.391-9.6094 37.219-26.391 1.2188-2.3906 0-6-2.3906-8.3906-2.3906-1.2188-6 0-8.3906 2.3906-9.6094 15.609-21.609 22.781-30 21.609-14.391-3.6094-25.219-28.781-30-67.219-1.2188-12-2.3906-24-3.6094-36-7.2188-80.391-15.609-157.22-80.391-236.39-16.781-22.781-36-43.219-57.609-58.781-26.391-19.219-108-9.6094-132 37.219-22.781-48-104.39-56.391-147.61-30-25.219 16.781-54 57.609-76.781 102-36 69.609-63.609 154.78-73.219 201.61-8.3906 45.609-15.609 58.781-18 62.391 0-2.3906-2.3906-6-4.7812-13.219 0-4.7812-3.6094-6-7.2188-6-3.6094 0-4.7812 3.6094-4.7812 7.2188 2.3906 10.781 6 25.219 15.609 25.219 7.2188 0 16.781-6 30-73.219 3.6094-15.609 8.3906-36 15.609-58.781v4.7812c-9.6094 33.609-18 69.609-21.609 108-4.7812 50.391-19.219 56.391-22.781 57.609-8.3906 1.2188-18-7.2188-25.219-20.391-1.2188-2.3906-4.7812-3.6094-8.3906-2.3906-2.3906 1.2188-3.6094 4.7812-2.3906 8.3906 8.3906 16.781 21.609 27.609 34.781 27.609h3.6094c9.6094-1.2188 20.391-9.6094 27.609-34.781-8.3906 37.219-22.781 60-52.781 44.391-37.219-19.219-39.609 72-39.609 115.22s82.781 103.22 130.78 75.609c51.609-30 64.781-88.781 69.609-170.39 2.3906 3.6094 4.7812 7.2188 8.3906 10.781 2.3906 76.781-12 147.61-84 181.22-43.219 20.391-99.609-19.219-117.61-40.781-2.3906-2.3906-6-2.3906-8.3906 0s-2.3906 6 0 8.3906c16.781 19.219 58.781 50.391 100.78 50.391s21.609-2.3906 31.219-7.2188c72-33.609 90-102 90-175.22 54 70.781 109.22 129.61 130.78 138 7.2188 2.3906 15.609 3.6094 22.781 3.6094 13.219 0 26.391-2.3906 32.391-4.7812 25.219-9.6094 106.78-81.609 148.78-153.61 7.2188 70.781 26.391 117.61 92.391 150 45.609 22.781 115.22-26.391 115.22-76.781 0-50.391-9.6094-186-64.781-130.78zm-210-277.22c26.391 25.219 55.219 120 58.781 214.78 0 19.219 1.2188 37.219 2.3906 54-22.781-38.391-31.219-90-38.391-140.39h1.2188c2.3906 2.3906 6 0 3.6094-3.6094-2.3906-2.3906-3.6094-4.7812-6-7.2188-8.3906-56.391-18-112.78-54-140.39 10.781 3.6094 21.609 10.781 32.391 20.391zm-289.18 304.82c0-12 0-25.219 1.2188-38.391 1.2188 15.609 3.6094 31.219 3.6094 46.781-2.3906-2.3906-3.6094-4.7812-6-8.3906zm201.61 171.61c-8.3906 3.6094-32.391 7.2188-48 1.2188-19.219-7.2188-78-69.609-135.61-147.61 0-32.391-4.7812-64.781-8.3906-96-1.2188-15.609-3.6094-30-4.7812-44.391 7.2188-85.219 32.391-165.61 57.609-188.39 38.391-36 72-28.781 103.22-24h4.7812c2.3906 1.2188 4.7812 2.3906 8.3906 1.2188 9.6094-1.2188 20.391-3.6094 31.219-3.6094 61.219 7.2188 75.609 66 86.391 136.78-1.2188 0-2.3906 0-3.6094-1.2188-24 2.3906-48 0-68.391-13.219-2.3906 0-3.6094-3.6094-7.2188-1.2188-3.6094 2.3906-6 6-6 10.781s2.3906 3.6094 4.7812 4.7812c6 3.6094 13.219 6 20.391 8.3906 18 6 38.391 3.6094 55.219 0 2.3906 0 3.6094 0 6 1.2188 0 3.6094 0 7.2188 1.2188 9.6094 8.3906 56.391 18 118.78 51.609 162 0 7.2188 0 14.391 1.2188 20.391-38.391 76.781-129.61 156-151.22 163.22z"/>
</svg>
