<?xml version="1.0" encoding="UTF-8"?>
<svg width="1200pt" height="1200pt" version="1.1" viewBox="0 0 1200 1200" xmlns="http://www.w3.org/2000/svg">
 <path d="m532.78 584.39c-10.781 0-20.391 8.3906-20.391 20.391s8.3906 20.391 20.391 20.391 20.391-8.3906 20.391-20.391-8.3906-20.391-20.391-20.391z"/>
 <path d="m714 584.39c-10.781 0-20.391 8.3906-20.391 20.391s8.3906 20.391 20.391 20.391 20.391-8.3906 20.391-20.391-8.3906-20.391-20.391-20.391z"/>
 <path d="m1021.2 776.39c-15.609-15.609-34.781-9.6094-43.219-25.219-4.7812-10.781-3.6094-25.219 3.6094-34.781 10.781-14.391 26.391-8.3906 37.219-20.391 13.219-15.609 8.3906-51.609-10.781-70.781-13.219-14.391-32.391-20.391-52.781-20.391 4.7812-2.3906 9.6094-6 14.391-9.6094 32.391-27.609 48-85.219 21.609-111.61-21.609-20.391-60-10.781-64.781-9.6094 1.2188-2.3906 14.391-20.391 9.6094-42-4.7812-19.219-21.609-31.219-38.391-34.781-18-3.6094-33.609 3.6094-37.219 6 27.609-18 38.391-51.609 25.219-76.781-10.781-21.609-37.219-38.391-62.391-30-2.3906 0-6 2.3906-8.3906 3.6094 3.6094-30-7.2188-68.391-36-87.609-30-20.391-74.391-14.391-102 9.6094-24 20.391-28.781 48-30 56.391-7.2188-20.391-19.219-28.781-25.219-33.609-39.609-25.219-110.39 1.2188-129.61 42-8.3906 19.219-6 43.219-15.609 44.391-4.7812 0-8.3906-6-15.609-10.781-19.219-12-55.219-6-76.781 14.391-20.391 19.219-26.391 50.391-16.781 76.781-1.2188-3.6094-9.6094-18-22.781-20.391-20.391-2.3906-33.609 38.391-36 43.219-4.7812 14.391-4.7812 25.219-4.7812 31.219 0 13.219 6 15.609 7.2188 21.609v4.7812c0 9.6094-32.391 27.609-33.609 28.781-16.781 9.6094-38.391 42-40.781 78-3.6094 49.219 30 84 34.781 90-30 3.6094-55.219 22.781-63.609 49.219-9.6094 34.781 10.781 75.609 52.781 90-40.781 31.219-49.219 85.219-25.219 118.78 16.781 22.781 48 34.781 79.219 30 6 4.7812 33.609 26.391 72 24 2.3906 0 54-4.7812 74.391-43.219 15.609-28.781 6-61.219-10.781-110.39 0-2.3906-2.3906-6-2.3906-8.3906 28.781 33.609 74.391 74.391 141.61 85.219 8.3906 1.2188 19.219 2.3906 33.609 2.3906s44.391-2.3906 70.781-10.781c64.781-20.391 105.61-67.219 129.61-104.39-4.7812 13.219-9.6094 30-16.781 50.391-14.391 43.219-21.609 66-15.609 84 0 2.3906 13.219 42 44.391 44.391 22.781 2.3906 46.781-16.781 56.391-46.781 1.2188 0 27.609 18 54 6 24-10.781 37.219-40.781 28.781-70.781 2.3906 0 37.219-2.3906 54-33.609 12-24 8.3906-54-6-69.609zm-201.61-175.18c0 49.219-39.609 88.781-88.781 88.781-49.219 0-88.781-39.609-88.781-88.781 0-49.219 39.609-88.781 88.781-88.781 49.219 0 39.609 7.2188 55.219 19.219 0 6 0 10.781 1.2188 15.609 2.3906 4.7812 12 12 22.781 15.609 4.7812 10.781 8.3906 24 8.3906 37.219zm-316.82-152.44c14.391-19.219 24-21.609 26.391-21.609 14.391-2.3906 20.391 9.6094 44.391 14.391 12 2.3906 22.781 4.7812 32.391 0 15.609-8.3906 10.781-27.609 22.781-43.219 21.609-27.609 78-27.609 85.219-12 6 12-19.219 26.391-14.391 52.781 2.3906 10.781 9.6094 25.219 21.609 27.609 18 3.6094 27.609-22.781 46.781-19.219 16.781 2.3906 25.219 26.391 25.219 27.609 6 16.781 0 31.219-3.6094 44.391-16.781-12-37.219-19.219-58.781-19.219-52.781 0-97.219 42-99.609 93.609h-16.781c-3.6094-52.781-46.781-93.609-99.609-93.609-52.781 0-26.391 2.3906-38.391 7.2188 7.2188-16.781 8.3906-34.781 26.391-58.781zm-67.172 112.83c13.219-7.2188 22.781-22.781 28.781-33.609 14.391-9.6094 31.219-15.609 49.219-15.609 49.219 0 88.781 39.609 88.781 88.781 0 49.219-39.609 88.781-88.781 88.781-49.219 0-88.781-39.609-88.781-88.781 0-49.219 3.6094-27.609 9.6094-39.609zm435.61 117.61c-10.781 6-20.391 0-28.781 9.6094-10.781 10.781-4.7812 31.219-2.3906 49.219v18l-2.3906 2.3906c-10.781 26.391-52.781 115.22-148.78 146.39-43.219 14.391-80.391 10.781-98.391 8.3906-99.609-16.781-153.61-103.22-163.22-122.39-12-55.219 8.3906-76.781-13.219-98.391-13.219-13.219-27.609 4.7812-43.219-8.3906-31.219-27.609-14.391-122.39 14.391-136.78 4.7812-2.3906 19.219 13.219 22.781 15.609 4.7812 2.3906 9.6094 3.6094 13.219 3.6094-4.7812 10.781-7.2188 22.781-7.2188 36 0 55.219 45.609 100.78 100.78 100.78 55.219 0 97.219-42 99.609-94.781h16.781c2.3906 52.781 46.781 94.781 99.609 94.781 52.781 0 100.78-45.609 100.78-100.78 0-55.219-2.3906-22.781-6-33.609h16.781c26.391-7.2188 21.609-18 32.391-12 32.391 15.609 26.391 109.22-3.6094 124.78z"/>
 <path d="m601.22 722.39c4.7812 3.6094 10.781 4.7812 16.781 4.7812s13.219-2.3906 18-7.2188c4.7812-4.7812 8.3906-12 8.3906-20.391s-3.6094-16.781-10.781-21.609c-2.3906-2.3906-6-2.3906-8.3906 0s-2.3906 6 0 8.3906c3.6094 3.6094 6 8.3906 6 13.219 0 4.7812-1.2188 8.3906-4.7812 10.781-4.7812 4.7812-13.219 4.7812-20.391 0-2.3906-2.3906-6 0-8.3906 1.2188-2.3906 2.3906 0 6 1.2188 8.3906z"/>
 <path d="m686.39 774c-3.6094 0-6 2.3906-6 6 0 39.609-38.391 44.391-55.219 45.609-26.391 0-52.781-12-61.219-30-1.2188-3.6094-4.7812-4.7812-8.3906-3.6094-3.6094 1.2188-4.7812 4.7812-3.6094 8.3906 9.6094 21.609 38.391 37.219 69.609 37.219h3.6094c42-1.2188 67.219-22.781 67.219-57.609 0-3.6094-2.3906-6-6-6z"/>
 <path d="m386.39 583.22c-7.2188 6-12 13.219-14.391 21.609-6 21.609 8.3906 38.391 9.6094 39.609 0 1.2188 2.3906 2.3906 4.7812 2.3906s2.3906 0 3.6094-1.2188c2.3906-2.3906 2.3906-6 0-8.3906 0 0-10.781-13.219-7.2188-28.781 1.2188-6 4.7812-12 10.781-15.609 2.3906-2.3906 2.3906-6 0-8.3906s-6-2.3906-8.3906 0z"/>
 <path d="m856.78 583.22c-2.3906-2.3906-6-1.2188-8.3906 0s-1.2188 6 0 8.3906c4.7812 4.7812 8.3906 9.6094 10.781 15.609 3.6094 15.609-6 27.609-7.2188 28.781-2.3906 2.3906-2.3906 6 0 8.3906 0 0 2.3906 1.2188 3.6094 1.2188s3.6094 0 4.7812-2.3906c0 0 14.391-18 9.6094-39.609-2.3906-8.3906-7.2188-15.609-14.391-22.781z"/>
 <path d="m476.39 580.78h3.6094c2.3906 0 3.6094 0 4.7812-2.3906 0 0 14.391-24 40.781-24 25.219 0 39.609 20.391 39.609 20.391 2.3906 2.3906 6 3.6094 8.3906 1.2188s3.6094-6 1.2188-8.3906c0 0-18-26.391-50.391-26.391s-49.219 27.609-51.609 30c-1.2188 2.3906 0 6 2.3906 8.3906z"/>
 <path d="m716.39 542.39c-32.391 0-49.219 27.609-51.609 30-1.2188 2.3906 0 6 2.3906 8.3906h3.6094c2.3906 0 3.6094 0 4.7812-2.3906 0 0 14.391-24 40.781-24 25.219 0 39.609 20.391 39.609 20.391 2.3906 2.3906 6 3.6094 8.3906 1.2188s3.6094-6 1.2188-8.3906c0 0-18-26.391-49.219-26.391z"/>
</svg>
