<?xml version="1.0" encoding="UTF-8"?>
<svg width="1200pt" height="1200pt" version="1.1" viewBox="0 0 1200 1200" xmlns="http://www.w3.org/2000/svg">
 <path d="m620.39 788.39c9.6094 0 21.609 0 36-4.7812 3.6094 0 4.7812-3.6094 4.7812-7.2188s-3.6094-4.7812-7.2188-4.7812c-28.781 7.2188-44.391 3.6094-51.609 2.3906l39.609-315.61c0-3.6094-2.3906-6-4.7812-7.2188-3.6094 0-6 2.3906-7.2188 4.7812l-39.609 320.39c0 2.3906 0 4.7812 2.3906 6 1.2188 0 9.6094 4.7812 27.609 4.7812z"/>
 <path d="m570 457.22c3.6094 0 6 0 7.2188-3.6094 0-3.6094 0-6-3.6094-7.2188-15.609-6-55.219-16.781-97.219 2.3906-15.609 7.2188-28.781 19.219-40.781 32.391-2.3906 2.3906-1.2188 6 0 8.3906 0 0 2.3906 1.2188 3.6094 1.2188s3.6094 0 4.7812-2.3906c9.6094-13.219 22.781-22.781 36-30 37.219-18 73.219-7.2188 87.609-2.3906z"/>
 <path d="m788.39 448.78c-40.781-19.219-81.609-8.3906-97.219-2.3906-3.6094 0-4.7812 4.7812-3.6094 7.2188 0 3.6094 4.7812 4.7812 7.2188 3.6094 14.391-4.7812 50.391-15.609 87.609 2.3906 14.391 7.2188 26.391 16.781 36 30 0 1.2188 2.3906 2.3906 4.7812 2.3906s2.3906 0 3.6094-1.2188c2.3906-2.3906 3.6094-6 0-8.3906-10.781-14.391-25.219-25.219-40.781-32.391z"/>
 <path d="m540 486c0-3.6094-8.3906-10.781-18-12-14.391-2.3906-27.609 9.6094-26.391 13.219 2.3906 7.2188 42 6 43.219-1.2188z"/>
 <path d="m741.61 474c-14.391-2.3906-27.609 9.6094-26.391 13.219 1.2188 7.2188 42 6 43.219-1.2188 0-3.6094-8.3906-10.781-18-12z"/>
 <path d="m704.39 802.78c-56.391 10.781-110.39 13.219-166.78 9.6094-7.2188 0-8.3906 9.6094-2.3906 12 27.609 10.781 57.609 14.391 87.609 13.219 30-1.2188 60-8.3906 85.219-22.781 2.3906 0 3.6094-3.6094 3.6094-6 0-3.6094-3.6094-6-7.2188-4.7812z"/>
 <path d="m924 535.22c-1.2188-64.781-30-183.61-73.219-228 31.219-19.219 58.781-43.219 54-55.219-4.7812-15.609-46.781-8.3906-130.78-8.3906-148.78 0-174-14.391-273.61-9.6094-68.391 3.6094-93.609 14.391-121.22 33.609-164.39 114-58.781 586.78 0 589.22 15.609 0 34.781-30 40.781-57.609l22.781 115.22c0 1.2188 1.2188 2.3906 2.3906 3.6094 16.781 10.781 33.609 20.391 51.609 27.609 0 0 56.391 24 132 24s96-8.3906 146.39-33.609c14.391-7.2188 28.781-15.609 42-25.219 1.2188 0 2.3906-2.3906 2.3906-3.6094l13.219-78v6c12 8.3906 32.391 21.609 48 14.391 19.219-8.3906 20.391-43.219 22.781-82.781 2.3906-33.609 6-80.391 15.609-138 8.3906-13.219 14.391-31.219 15.609-48 0-14.391 0-33.609-10.781-46.781zm-1.2188 46.781c-1.2188 20.391-10.781 44.391-22.781 54-3.6094 3.6094-7.2188 4.7812-10.781 4.7812-14.391-1.2188-21.609-7.2188-22.781-9.6094-1.2188-2.3906-3.6094-2.3906-6-2.3906s-3.6094 2.3906-4.7812 4.7812l-46.781 271.22c-12 8.3906-25.219 16.781-38.391 22.781-132 66-266.39 10.781-268.78 9.6094-16.781-7.2188-32.391-15.609-48-25.219l-51.609-268.78c0-2.3906-2.3906-3.6094-4.7812-4.7812-2.3906 0-4.7812 0-6 2.3906-2.3906 3.6094-6 7.2188-10.781 7.2188-12 2.3906-24-14.391-28.781-22.781-8.3906-15.609-12-49.219-4.7812-70.781 2.3906-6 4.7812-13.219 10.781-15.609 13.219-6 24-4.7812 31.219 6 9.6094 20.391 16.781 58.781 16.781 58.781 13.219 0-9.6094-78 14.391-174 14.391-57.609 14.391-68.391 22.781-114 20.391 3.6094 51.609 8.3906 91.219 13.219 69.609 8.3906 194.39 24 271.22 0 6 13.219 16.781 30 27.609 57.609 25.219 64.781 21.609 128.39 20.391 150-1.2188 34.781 1.2188 67.219 4.7812 68.391 4.7812 0 9.6094-52.781 28.781-69.609 4.7812-2.3906 9.6094-2.3906 14.391 0 15.609 7.2188 21.609 21.609 20.391 48z"/>
</svg>
