<?xml version="1.0" encoding="UTF-8"?>
<svg width="1200pt" height="1200pt" version="1.1" viewBox="0 0 1200 1200" xmlns="http://www.w3.org/2000/svg">
 <path d="m552 536.39c6 4.7812 14.391 7.2188 22.781 7.2188s14.391-2.3906 20.391-6c2.3906-2.3906 3.6094-6 1.2188-8.3906s-6-3.6094-8.3906-1.2188c-7.2188 4.7812-19.219 4.7812-26.391 0 3.6094-6 12-16.781 16.781-45.609 0-3.6094-1.2188-6-4.7812-7.2188-3.6094 0-6 1.2188-7.2188 4.7812-4.7812 26.391-10.781 36-14.391 40.781-2.3906 3.6094-6 9.6094 0 14.391z"/>
 <path d="m541.22 412.78c3.6094 0 6 0 7.2188-3.6094s0-6-3.6094-7.2188c-36-12-55.219 6-70.781 27.609-2.3906 2.3906-1.2188 6 1.2188 8.3906h3.6094c2.3906 0 3.6094 0 4.7812-2.3906 15.609-21.609 30-32.391 57.609-24z"/>
 <path d="m661.22 412.78c-2.3906-1.2188-10.781-6-20.391-7.2188-16.781-2.3906-32.391 3.6094-40.781 8.3906-2.3906 1.2188-3.6094 4.7812-2.3906 8.3906 1.2188 2.3906 4.7812 3.6094 8.3906 2.3906 6-3.6094 19.219-9.6094 32.391-7.2188 7.2188 1.2188 14.391 4.7812 16.781 6 6 3.6094 9.6094 6 10.781 8.3906 0 0 2.3906 1.2188 4.7812 1.2188s3.6094 0 4.7812-1.2188c2.3906-2.3906 2.3906-6 0-8.3906s-7.2188-6-13.219-9.6094z"/>
 <path d="m648 451.22c1.2188-4.7812-3.6094-13.219-12-14.391-7.2188 0-14.391 4.7812-15.609 10.781 0 3.6094 0 7.2188 3.6094 9.6094 6 6 22.781 1.2188 24-6z"/>
 <path d="m538.78 460.78c0-6-3.6094-13.219-12-14.391-7.2188 0-14.391 4.7812-15.609 10.781 0 3.6094 0 7.2188 3.6094 9.6094 6 6 22.781 1.2188 24-6z"/>
 <path d="m655.22 537.61c-8.3906 4.7812-31.219 19.219-63.609 25.219-21.609 3.6094-44.391 3.6094-66-1.2188-1.2188 0-3.6094 0-4.7812 1.2188-1.2188 0-2.3906 2.3906-2.3906 4.7812s0 3.6094 2.3906 4.7812c7.2188 6 10.781 8.3906 14.391 9.6094 2.3906 1.2188 4.7812 2.3906 7.2188 4.7812 9.6094 7.2188 24 16.781 31.219 16.781h6c27.609 0 55.219-18 85.219-55.219 3.6094-3.6094 6-7.2188 2.3906-12-3.6094-3.6094-7.2188-1.2188-12 0zm-80.438 54c-3.6094 0-14.391-6-25.219-14.391 15.609 0 30 0 45.609-2.3906 16.781-2.3906 31.219-7.2188 42-13.219-21.609 21.609-42 31.219-61.219 30z"/>
 <path d="m736.78 441.61c4.7812-2.3906 7.2188-2.3906 7.2188-2.3906 1.2188 1.2188 2.3906 12-6 32.391-1.2188 3.6094 0 6 3.6094 7.2188h2.3906c2.3906 0 4.7812-1.2188 6-3.6094 4.7812-12 14.391-39.609 0-46.781-4.7812-3.6094-10.781-2.3906-19.219 1.2188-2.3906 1.2188-3.6094 4.7812-2.3906 8.3906 1.2188 2.3906 4.7812 3.6094 8.3906 2.3906z"/>
 <path d="m855.61 588c-81.609-232.78-92.391-348-154.78-355.22-16.781-2.3906-31.219 6-40.781 13.219-102-60-157.22-46.781-182.39-36-60 26.391-42 68.391-127.22 304.78-39.609 111.61-61.219 150-67.219 231.61-4.7812 72-10.781 144 38.391 193.22 74.391 74.391 218.39 36 220.78 21.609 0-6-18-9.6094-40.781-32.391s-21.609-26.391-22.781-37.219c-4.7812-28.781 8.3906-48 22.781-88.781 0 0 10.781-32.391 15.609-82.781 3.6094-33.609-2.3906-55.219-12-85.219 15.609 13.219 31.219 25.219 42 32.391 12 7.2188 27.609 12 42 12h3.6094c46.781-2.3906 96-54 115.22-80.391-9.6094 52.781 10.781 79.219 30 158.39 27.609 111.61 60 142.78 38.391 180-21.609 37.219-68.391 40.781-63.609 51.609 6 14.391 80.391 21.609 129.61-12 51.609-36 66-97.219 70.781-121.22 18-86.391-14.391-141.61-57.609-265.22zm-261.61 76.781c-13.219 0-27.609-2.3906-38.391-9.6094-16.781-10.781-37.219-26.391-56.391-45.609-7.2188-22.781-15.609-52.781-25.219-93.609-16.781-78-14.391-99.609-12-110.39 2.3906-15.609 4.7812-68.391 66-96 30-13.219 60-9.6094 75.609-6 19.219 28.781 54 81.609 112.78 87.609 9.6094 0 16.781 2.3906 22.781 4.7812-4.7812 1.2188-9.6094 4.7812-14.391 9.6094-2.3906 2.3906-2.3906 6 0 8.3906s6 2.3906 8.3906 0c4.7812-4.7812 10.781-9.6094 16.781-7.2188 7.2188 2.3906 13.219 16.781 15.609 33.609 1.2188 20.391-7.2188 43.219-28.781 49.219-2.3906 0-4.7812 3.6094-4.7812 6 1.2188 15.609-7.2188 45.609-22.781 81.609-6 13.219-63.609 84-114 87.609zm164.39-80.391c-6 2.3906-7.2188-3.6094-8.3906-9.6094 0-6 0-14.391 6-13.219 4.7812 0 6 8.3906 7.2188 12 0 4.7812-1.2188 9.6094-6 10.781zm-2.3906-28.781c-10.781 3.6094-14.391-6-15.609-18s1.2188-30 13.219-27.609c8.3906 0 13.219 15.609 14.391 24 1.2188 8.3906-2.3906 19.219-12 22.781z"/>
</svg>
