<?xml version="1.0" encoding="utf-8"?>
<!-- Generator: Adobe Illustrator 23.0.1, SVG Export Plug-In . SVG Version: 6.00 Build 0)  -->
<svg version="1.1" id="Layer_1" xmlns="http://www.w3.org/2000/svg" xmlns:xlink="http://www.w3.org/1999/xlink" x="0px" y="0px"
	 viewBox="0 0 1200 1200" style="enable-background:new 0 0 1200 1200;" xml:space="preserve">
<path d="M876,314.4c-150-223.2-285.6-96-285.6-96s-133.2-103.2-288,106.8c-148.8,201.6-127.2,427.2-121.2,456
	c12,51.6,46.8,214.8,153.6,234c70.8,13.2,135.6-45.6,156-64.8c-20.4-21.6-45.6-51.6-67.2-93.6c-7.2-15.6-14.4-32.4-19.2-50.4
	c20.4,34.8,52.8,72,99.6,100.8c20.4,12,63.6,38.4,112.8,38.4c78,0,156-68.4,204-171.6c-3.6,18-8.4,38.4-15.6,62.4
	c-9.6,30-33.6,82.8-48,103.2c56.4,109.2,135.6,75.6,166.8,55.2c163.2-109.2,105.6-450-50.4-681.6L876,314.4z M866.4,627.6
	c-19.2,13.2-42,3.6-48,4.8c2.4,27.6,10.8,57.6,9.6,100.8c-42,120-126,201.6-208.8,202.8c-45.6,0-87.6-25.2-106.8-37.2
	c-68.4-40.8-102-102-118.8-141.6c-9.6-51.6-12-102-12-124.8c-24,13.2-44.4,20.4-62.4,8.4c-32.4-22.8-31.2-97.2,3.6-120
	c21.6-14.4,45.6,2.4,52.8,3.6c-10.8-6,14.4-84,38.4-115.2c19.2-24,33.6-33.6,54-40.8c14.4-6,37.2-13.2,74.4-9.6
	c16.8,1.2,40.8,12,50.4,14.4c13.2-6,72-44.4,134.4-12c22.8,12,33.6,21.6,57.6,68.4c15.6,28.8,20.4,73.2,18,85.2
	c18-18,24-21.6,42-16.8c26.4,7.2,81.6,90,22.8,130.8L866.4,627.6z"/>
<path d="M721.2,519.6c-19.2-4.8-42-1.2-60,2.4c-8.4,2.4-14.4,1.2-22.8-2.4c-6-3.6-12,6-6,9.6c8.4,7.2,21.6,9.6,31.2,8.4
	c18-2.4,34.8-4.8,52.8,0c8.4,2.4,15.6,4.8,25.2,6c1.2,0,3.6,0,4.8-1.2c10.8-10.8-16.8-22.8-25.2-25.2L721.2,519.6z"/>
<path d="M554.4,529.2c6-3.6,0-13.2-6-10.8c-4.8,1.2-8.4,2.4-12,2.4c-14.4,0-25.2-7.2-42-8.4c-10.8,0-21.6,0-32.4,4.8
	c-10.8,3.6-25.2,9.6-26.4,22.8c3.6,13.2,26.4,0,33.6-2.4c28.8-12,58.8,9.6,85.2-9.6L554.4,529.2z"/>
<path d="M584.4,703.2c10.8,0,27.6-2.4,51.6-8.4c3.6,0,4.8-3.6,4.8-7.2s-3.6-4.8-7.2-4.8c-55.2,13.2-61.2,4.8-61.2,4.8
	c0-1.2,3.6-8.4,6-13.2c2.4-3.6,4.8-7.2,6-10.8c12-21.6,19.2-46.8,21.6-74.4c0-3.6-2.4-6-6-6s-6,2.4-6,6
	c-2.4,26.4-8.4,49.2-20.4,69.6c-2.4,3.6-4.8,7.2-6,10.8c-6,9.6-10.8,16.8-7.2,25.2c2.4,4.8,7.2,9.6,22.8,9.6L584.4,703.2z"/>
<path d="M631.4,783.9c-8.2,1.9-20.8-2.6-26-5.9c-25.2,11.6-47.4,8.3-63.9-9.4c-4-3.4-5.4-5.3-11.5-5.6c-6,0.7-8.2-7.9-2.3-9.5
	c3.5-1.4,8.1-2.9,13.1-1.5c10.8-0.2,21.6,9.3,29,10.4c6.2,1.3,14.3-1.6,19.9-5.2c8-3.8,21.1-5.3,28.8-1.3c6.4,3.2,6.5,4.2,9,4.9
	c13.1-1.5,24.2-10.6,39.2-16.2l6-0.7c2.6,1.7,4.1,4.4,2,6.6c-9.4,12.8-23.4,28.1-44.6,32.5L631.4,783.9z"/>
<path d="M538.8,566.4c0-12-7.2-21.6-15.6-21.6s-15.6,9.6-15.6,21.6s7.2,21.6,15.6,21.6S538.8,578.4,538.8,566.4z"/>
<path d="M712.8,544.8c-8.4,0-15.6,9.6-15.6,21.6s7.2,21.6,15.6,21.6s15.6-9.6,15.6-21.6S721.2,544.8,712.8,544.8z"/>
</svg>
