<?xml version="1.0" encoding="UTF-8"?>
<svg width="700pt" height="700pt" version="1.1" viewBox="0 0 700 700" xmlns="http://www.w3.org/2000/svg">
 <path d="m505.39 321.29c0-5.6055-2.1055-25.211-2.1055-50.395 0-21.711-3.5-28-7-56.711v-1.3945c21-25.895 27.289-61.605 16.789-72.105-9.1055-9.7891-27.289 1.3945-71.395 12.605-88.215 21.711-116.89 0.71094-168 28.711-31.5 17.5-49.711 41.289-57.395 52.5-53.895 73.5-33.605 157.5-18.211 219.11 3.5 13.289 10.5 37.789 25.211 40.605 4.8945 0.71094 11.895 0 15.395-1.3945 6.2891-1.3945 14-3.5 18.211-7.7109 16.789 47.605 42.711 74.215 77.715 79.105h10.5c49.711 0 98-43.395 105.71-59.5 6.2891-13.289 11.211-25.895 15.395-42.711 0 2.1055 1.3945 4.2109 2.7891 6.2891 4.2109 7 14.711 11.895 23.105 9.1055 24.5-7.7109 21-84.715 16.105-102.21 5.6055-7 9.1055-16.105 9.7891-25.895 0.71094-9.7891-1.3945-17.5-5.6055-23.105-2.1055-2.1055-4.2109-3.5-6.2891-5.6055zm4.8945 28c-0.71094 11.211-6.2891 22.395-14 28-11.211 8.3945-20.289 7-20.289 6.2891h-2.7891c-0.71094 0-1.3945 1.3945-1.3945 2.1055-9.1055 66.5-14 88.215-27.289 115.5-7.7109 15.395-59.5 60.895-108.5 54.605-40.605-4.8945-68.605-43.395-82.605-114.11-2.1055-11.895-5.6055-22.395-8.3945-32.211-1.3945-4.8945-2.7891-9.1055-4.2109-14 0-1.3945 0-2.7891-0.71094-3.5v-1.3945c0-1.3945-1.3945-2.7891-3.5-2.7891-3.5-0.71094-13.289 0.71094-17.5-4.8945-11.211-15.395-12.605-47.605 2.7891-56.711 3.5-2.1055 14.711-4.2109 18.211-3.5 0 0 3.5 0 4.8945 0.71094 9.7891 2.7891 9.7891 33.605 9.7891 36.395 0 15.395-2.7891 25.895 0 27.289 1.3945 0 4.2109-2.1055 5.6055-4.8945 1.3945-2.7891 2.1055-4.8945 2.7891-7 12.605-32.895-7.7109-60.211 9.1055-84 0.71094-1.3945 2.1055-2.7891 3.5-4.2109 5.6055-6.2891 16.789-15.395 46.211-28 67.895-29.395 107.79-9.7891 143.5-24.5-0.71094 15.395 3.5 34.289-0.71094 65.105-6.2891 47.605-8.3945 69.289-4.2109 70 3.5 1.3945 5.6055-49 19.605-50.395h2.7891c6.2891 0 16.105 2.7891 23.105 10.5 3.5 3.5 4.8945 10.5 4.2109 17.5z"/>
 <path d="m333.89 313.61c4.2109 0.71094 14-3.5 8.3945-9.1055-4.2109-3.5-10.5-1.3945-15.395-2.1055-16.105-0.71094-34.289 2.7891-46.211 14.711-2.7891 2.7891 1.3945 7.7109 4.2109 5.6055 7.7109-4.8945 17.5-8.3945 26.605-9.1055z"/>
 <path d="m403.89 302.39h-7.7109c-2.7891 0-6.2891-1.3945-7.7109 2.1055-2.1055 3.5 0.71094 9.7891 4.8945 9.1055h3.5c16.789 0 34.289-1.3945 48.289 9.1055 3.5 2.7891 7.7109-2.1055 4.8945-5.6055-11.895-11.895-29.395-15.395-46.211-14.711z"/>
 <path d="m311.5 352.79c5.6055 3.5 16.105 0 17.5-8.3945 1.3945-4.8945-1.3945-10.5-5.6055-12.605-3.5-1.3945-7.7109-2.1055-10.5 0-7 4.2109-7 17.5-0.71094 21z"/>
 <path d="m406.71 352.79c5.6055 3.5 16.105 0 17.5-8.3945 0.71094-4.8945-1.3945-10.5-5.6055-12.605-3.5-1.3945-7.7109-2.1055-10.5 0-7 4.2109-7 17.5-0.71094 21z"/>
 <path d="m361.89 401.79c2.7891 0 6.2891 0 9.1055-2.1055 4.2109-2.1055 6.2891-4.8945 7.7109-7 1.3945-1.3945 0.71094-3.5-0.71094-4.8945-1.3945-1.3945-3.5-0.71094-4.8945 0.71094-0.71094 1.3945-2.7891 3.5-4.8945 4.2109-5.6055 2.7891-11.895 0.71094-14-0.71094-5.6055-4.2109 1.3945-30.105 16.789-59.5 0.71094-1.3945 0-3.5-1.3945-4.8945-1.3945-0.71094-3.5 0-4.8945 1.3945-10.5 21-27.289 58.105-14.711 67.895 2.1055 2.1055 7 3.5 12.605 3.5z"/>
 <path d="m426.29 445.21c-8.3945 2.1055-25.211 5.6055-46.211 6.2891-27.289 0-49.711-4.8945-64.395-9.1055-12.605-3.5-18.211-4.8945-20.289 0v4.8945c2.7891 6.2891 14.711 14 24.5 18.211 6.2891 2.7891 13.289 4.2109 24.5 4.2109s18.211-0.71094 31.5-3.5c22.395-3.5 57.395-12.605 60.211-17.5 0-0.71094 0.71094-2.1055 0-2.7891-0.71094-4.2109-4.2109-2.7891-10.5-1.3945zm-51.078 14.684c-29.395 4.8945-42 3.5-51.789-0.71094-9.1055-3.5-16.105-9.1055-18.895-11.895 2.7891 0 6.2891 1.3945 9.7891 2.1055 14 3.5 37.789 9.7891 65.789 9.1055h2.7891c-2.7891 0-5.6055 0.71094-7.7109 1.3945z"/>
</svg>
