<?xml version="1.0" encoding="UTF-8"?>
<svg width="1200pt" height="1200pt" version="1.1" viewBox="0 0 1200 1200" xmlns="http://www.w3.org/2000/svg">
 <path d="m561.61 568.78v-12c-3.6094-12-7.2188-7.2188-10.781-7.2188h-9.6094c-34.781 3.6094-70.781 9.6094-100.78 30-12 8.3906-21.609 19.219-30 27.609-2.3906 2.3906-2.3906 4.7812 0 7.2188 2.3906 2.3906 6 3.6094 8.3906 1.2188 10.781-7.2188 21.609-15.609 32.391-21.609 31.219-14.391 69.609-15.609 103.22-18 3.6094 0 7.2188 3.6094 9.6094-8.3906z"/>
 <path d="m692.39 553.22c-9.6094-1.2188-20.391-2.3906-31.219-3.6094-3.6094 0-7.2188-3.6094-10.781 7.2188-1.2188 3.6094-1.2188 8.3906 0 12 2.3906 12 6 7.2188 9.6094 8.3906h9.6094c31.219 3.6094 64.781 4.7812 93.609 18 10.781 6 21.609 14.391 32.391 21.609 2.3906 1.2188 6 0 7.2188 0s2.3906-6 0-8.3906c-26.391-33.609-69.609-50.391-110.39-55.219z"/>
 <path d="m501.61 622.78c10.781-4.7812 15.609-19.219 12-21.609-20.391-14.391-38.391 9.6094-37.219 16.781 0 4.7812 13.219 9.6094 25.219 4.7812z"/>
 <path d="m733.22 618c0-8.3906-16.781-31.219-37.219-16.781-3.6094 2.3906 0 16.781 12 21.609 10.781 4.7812 24 0 25.219-4.7812z"/>
 <path d="m589.22 762c7.2188 0 13.219-1.2188 19.219-3.6094 7.2188-2.3906 13.219-8.3906 19.219-14.391 2.3906-2.3906 1.2188-6 0-8.3906-2.3906-2.3906-6-1.2188-8.3906 0-3.6094 4.7812-8.3906 8.3906-14.391 10.781-9.6094 4.7812-21.609 3.6094-25.219 0-2.3906-4.7812 3.6094-18 8.3906-27.609l2.3906-4.7812c14.391-30 22.781-64.781 26.391-104.39 0-3.6094-2.3906-6-6-6s-6 2.3906-6 6c-3.6094 38.391-12 72-25.219 100.78l-2.3906 4.7812c-6 13.219-13.219 28.781-7.2188 39.609 3.6094 7.2188 12 9.6094 20.391 9.6094z"/>
 <path d="m709.22 818.39c0-2.3906-2.3906-3.6094-7.2188-4.7812-9.6094-6-36-8.3906-103.22-8.3906-82.781 0-94.781 3.6094-97.219 13.219 0 3.6094 2.3906 8.3906 6 13.219 14.391 20.391 56.391 46.781 102 46.781 32.391 0 62.391-15.609 80.391-31.219 0 0 2.3906 0 3.6094-2.3906 2.3906-2.3906 12-10.781 13.219-19.219 0-2.3906 1.2188-6 0-7.2188zm-13.219 6c0 2.3906-4.7812 8.3906-8.3906 10.781s-10.781 2.3906-16.781 1.2188h-85.219c-16.781 0-33.609 1.2188-50.391 0-7.2188-4.7812-15.609-10.781-19.219-15.609 12-3.6094 60-3.6094 84-3.6094 60 0 92.391 2.3906 97.219 6z"/>
 <path d="m597.61 895.22c0-3.6094-3.6094-4.7812-7.2188-4.7812s-4.7812 3.6094-4.7812 7.2188l6 25.219c0 2.3906 3.6094 4.7812 6 4.7812h1.2188c3.6094 0 4.7812-3.6094 4.7812-7.2188z"/>
 <path d="m610.78 888c-3.6094 0-6 2.3906-6 6v16.781c0 3.6094 3.6094 6 6 6 3.6094 0 6-2.3906 6-6v-16.781c0-3.6094-3.6094-6-7.2188-6z"/>
 <path d="m633.61 888c-3.6094 0-6 1.2188-7.2188 4.7812l-4.7812 24c0 3.6094 1.2188 6 4.7812 7.2188 2.3906 0 4.7812-2.3906 6-4.7812l4.7812-24c0-3.6094-1.2188-6-4.7812-7.2188z"/>
 <path d="m908.39 669.61c-3.6094-18-12-30-22.781-34.781-6-2.3906-13.219-2.3906-20.391 0 6-34.781 21.609-244.78 10.781-274.78-4.7812-13.219-25.219-54-46.781-51.609-9.6094 0-16.781 12-21.609 21.609-2.3906-6-46.781-86.391-74.391-78-4.7812 1.2188-10.781 6-15.609 21.609-27.609-39.609-46.781-57.609-56.391-54-4.7812 2.3906-7.2188 10.781-7.2188 26.391-3.6094-34.781-30-56.391-51.609-55.219-16.781 1.2188-31.219 16.781-38.391 36 0-2.3906-3.6094-21.609-13.219-24-9.6094-2.3906-24 12-31.219 37.219-9.6094-18-20.391-20.391-22.781-20.391-18-2.3906-43.219 20.391-52.781 62.391-3.6094-13.219-9.6094-21.609-15.609-21.609-12-2.3906-30 21.609-50.391 69.609-3.6094-10.781-10.781-18-18-19.219-2.3906 0-9.6094 0-20.391 14.391-18 25.219-19.219 55.219-19.219 58.781 1.2188 52.781 4.7812 199.22 16.781 238.78-7.2188-1.2188-15.609-2.3906-22.781 0-7.2188 3.6094-14.391 10.781-18 21.609-9.6094 25.219-4.7812 63.609 8.3906 88.781 3.6094 7.2188 9.6094 15.609 25.219 18h8.3906c4.7812 0 9.6094 0 13.219-2.3906l13.219 84c3.6094 26.391 15.609 50.391 33.609 69.609 20.391 21.609 158.39 102 187.22 105.61 3.6094 0 7.2188 0 9.6094 1.2188 6 0 10.781 1.2188 16.781 1.2188h21.609c12 0 21.609 0 28.781-3.6094 33.609-16.781 147.61-98.391 160.78-122.39 7.2188-13.219 12-27.609 13.219-42 4.7812-31.219 9.6094-62.391 13.219-93.609 4.7812 2.3906 10.781 6 19.219 6h3.6094c12-1.2188 20.391-9.6094 22.781-12 16.781-18 21.609-51.609 15.609-75.609zm-24 67.172c-3.6094 3.6094-8.3906 7.2188-15.609 8.3906-10.781 0-19.219-7.2188-20.391-8.3906-1.2188-1.2188-3.6094-2.3906-6-1.2188 0 0-1.2188 0-2.3906 1.2188-14.391 14.391-1.2188 99.609-36 142.78-32.391 24-118.78 91.219-151.22 93.609-20.391 1.2188-39.609 0-69.609 0s-102-44.391-148.78-72c-16.781-10.781-30-25.219-37.219-43.219-20.391-52.781-28.781-104.39-37.219-118.78 0-2.3906-2.3906-3.6094-3.6094-3.6094h-2.3906c-1.2188 0-9.6094 3.6094-19.219 2.3906-8.3906-1.2188-13.219-4.7812-16.781-12-12-22.781-15.609-57.609-7.2188-79.219 2.3906-4.7812 4.7812-12 10.781-14.391 9.6094-3.6094 28.781 3.6094 36 7.2188 2.3906 7.2188 4.7812 19.219 8.3906 36 1.2188 8.3906 6 15.609 6 12 7.2188-31.219 0-114 6-147.61 3.6094-25.219-2.3906-42 13.219-90 4.7812-15.609 63.609 0 91.219 0 42 0 51.609-24 97.219-27.609 6 0 3.6094 0 84 10.781 48 7.2188 64.781 9.6094 87.609 6 22.781-2.3906 73.219-14.391 76.781 3.6094 6 33.609 10.781 45.609 13.219 97.219 2.3906 39.609 0 144 0 147.61 3.6094 10.781 8.3906-18 16.781-38.391 10.781-7.2188 20.391-9.6094 26.391-7.2188 7.2188 2.3906 13.219 12 15.609 26.391 4.7812 20.391 1.2188 50.391-13.219 64.781z"/>
 <path d="m609.61 772.78c-44.391 2.3906-104.39-6-132 37.219-3.6094 6 4.7812 12 9.6094 7.2188 7.2188-7.2188 15.609-13.219 25.219-16.781 30-9.6094 66-7.2188 97.219-8.3906 22.781 0 44.391 1.2188 67.219 3.6094 20.391 1.2188 40.781 8.3906 49.219 27.609 3.6094 7.2188 13.219 2.3906 10.781-3.6094-16.781-51.609-84-43.219-127.22-48z"/>
</svg>
