<?xml version="1.0" encoding="UTF-8"?>
<svg width="700pt" height="700pt" version="1.1" viewBox="0 0 700 700" xmlns="http://www.w3.org/2000/svg">
 <path d="m574 389.89c-7.7109 6.2891-19.605 12.605-34.289 13.289-37.105 1.3945-65.105-37.105-80.5-59.5-46.895-67.211-44.105-79.105-70.715-151.89-9.1055-24.5-39.895-61.605-79.785-67.895-25.211-4.2109-63.711 2.7891-91.715 16.789-6.2891 0-12.605 1.3945-19.605 2.7891-107.79 23.105-113.39 91-111.29 130.89 1.3945 28 9.1055 56.711 15.395 75.605-11.895 4.2109-20.289 12.605-22.395 24.5-2.1055 9.7891 1.3945 19.605 8.3945 24.5 3.5 2.7891 11.211 5.6055 21.711 0.71094 12.605 67.211 51.789 110.61 99.395 112h1.3945c37.105 0 81.895-28 100.11-107.79 9.1055 1.3945 17.5-1.3945 23.105-7.7109 7.7109-8.3945 10.5-21.711 6.2891-32.895-2.7891-7.7109-9.1055-13.289-16.789-14.711 14.711-31.5 35.711-67.895 18.895-111.29-11.895-30.789-29.395-60.211-54.605-78.395 47.605 1.3945 67.895 58.789 73.5 96.605 10.5 71.395 5.6055 233.79 109.21 297.5 15.395 9.1055 51.789 31.5 91 18.211 32.895-11.211 53.211-42 59.5-70 9.1055-40.605-9.7891-85.395-47.605-112zm-261.11-12.605c2.1055-7 4.8945-14 8.3945-21.711 8.3945 1.3945 11.895 6.2891 13.289 11.211 2.7891 8.3945 1.3945 18.895-4.8945 25.895-3.5 3.5-9.7891 7.7109-20.289 4.8945h-2.7891c-0.71094 0-1.3945 1.3945-1.3945 2.1055-17.5 79.105-60.895 105.71-95.895 105.71-45.5-0.71094-82.605-44.105-93.785-110.61 0-1.3945-0.71094-2.1055-2.1055-2.7891h-3.5c-7.7109 4.2109-14 4.8945-18.895 1.3945s-7-10.5-5.6055-17.5c0.71094-4.2109 4.2109-14.711 17.5-18.895 4.8945 14 9.1055 20.289 8.3945 14.711-6.2891-35.711 19.605-149.11 77-154 11.211-0.71094 21 7.7109 27.289 12.605 6.2891-3.5 16.105-11.895 28-11.211 87.5 3.5 62.289 182 67.895 158.21z"/>
 <path d="m185.5 316.39c-11.211-4.2109-30.789 7.7109-38.5 15.395-1.3945 1.3945-1.3945 3.5 0 4.8945 0 0 1.3945 0.71094 2.1055 0.71094 0.71094 0 2.1055 0 2.7891-1.3945 7-7.7109 23.789-16.789 30.789-14 0.71094 0 2.7891 1.3945 2.7891 7 0 2.1055 1.3945 3.5 3.5 3.5 2.1055 0 3.5-1.3945 3.5-3.5 0-8.3945-4.2109-11.895-7-13.289z"/>
 <path d="m240.11 315c-3.5 1.3945-7.7109 5.6055-6.2891 15.395 0 2.1055 2.1055 3.5 4.2109 2.7891 2.1055 0 3.5-2.1055 2.7891-4.2109-0.71094-6.2891 1.3945-7.7109 2.7891-7.7109 7.7109-3.5 28.711 7 33.605 11.895 0 0.71094 1.3945 1.3945 2.7891 1.3945s1.3945 0 2.1055-0.71094c1.3945-1.3945 1.3945-3.5 0-4.8945-4.8945-5.6055-29.395-18.895-41.289-13.289z"/>
 <path d="m175 340.89c-4.2109 0-6.2891 11.211-6.2891 18.895 0 1.3945 0 12.605 4.8945 13.289 3.5 0.71094 9.7891-6.2891 11.211-13.289 1.3945-9.1055-4.8945-18.895-9.1055-18.895z"/>
 <path d="m249.21 338.11c-4.2109 0-9.7891 13.289-5.6055 22.395 2.1055 4.2109 6.2891 8.3945 9.7891 7.7109 4.2109-0.71094 5.6055-10.5 4.2109-16.789-0.71094-5.6055-4.8945-14-8.3945-13.289z"/>
 <path d="m229.61 305.89c-6.2891 6.2891-12.605 15.395-15.395 25.895 0-5.6055-2.1055-11.895-4.2109-16.789-4.8945-13.289-13.289-22.395-23.789-25.895-19.605-7-41.289 7-51.105 16.789-12.605 12.605-23.789 36.395-14.711 60.895 5.6055 14.711 19.605 32.211 41.289 32.895h2.1055c25.895 0 40.605-25.211 42.711-28 0.71094-1.3945 1.3945-2.7891 2.1055-4.2109-2.1055 14-4.8945 20.289-7 23.105-2.1055 4.2109-2.7891 7 2.1055 11.895 4.8945 4.8945 9.7891 6.2891 13.289 6.2891s4.8945 0 7-1.3945h0.71094c2.1055-0.71094 2.7891-2.7891 2.1055-4.2109 0-2.1055-2.7891-2.7891-4.2109-2.1055h-0.71094c-4.2109 1.3945-7.7109 2.7891-13.289-2.7891-1.3945-1.3945-1.3945-2.1055-1.3945-1.3945 0 0 0-1.3945 0.71094-2.1055 2.1055-3.5 5.6055-10.5 7.7109-25.211 6.2891 14 19.605 30.105 40.605 31.5h2.1055c25.895 0 40.605-25.211 42.711-28 9.1055-16.105 9.7891-37.789 3.5-56-4.8945-13.289-13.289-22.395-23.789-25.895-19.605-7-41.289 7-51.105 16.789zm-28.711 62.316c-1.3945 2.7891-14.711 25.895-37.789 24.5-16.789-0.71094-30.105-14.711-35-28.711-7.7109-19.605 1.3945-40.605 13.289-53.211 7-7 20.289-16.789 34.289-16.789s6.2891 0 9.1055 1.3945c8.3945 2.7891 15.395 11.211 19.605 21.711 6.2891 16.105 4.8945 36.395-2.7891 50.395zm96.605-50.422c6.2891 16.105 4.8945 36.395-2.7891 50.395-1.3945 2.7891-14.711 25.895-37.789 24.5-16.789-0.71094-30.105-14.711-35-28.711-7.7109-19.605 1.3945-40.605 13.289-53.211 7-7 20.289-16.789 34.289-16.789s6.2891 0 9.1055 1.3945c8.3945 2.7891 15.395 11.211 19.605 21.711z"/>
 <path d="m257.61 412.29c-2.1055 0-3.5 1.3945-4.2109 2.7891 0 4.2109-2.1055 10.5-7 15.395-8.3945 9.1055-23.105 11.211-37.105 6.2891-2.1055 0-3.5 0-4.2109 2.1055 0 2.1055 0 3.5 2.1055 4.2109 5.6055 2.1055 11.211 2.7891 16.789 2.7891 10.5 0 21-3.5 28-11.211 6.2891-6.2891 8.3945-14 9.1055-19.605 0-2.1055-1.3945-3.5-2.7891-4.2109z"/>
 <path d="m105 438.21c-1.3945-7.7109-2.7891-13.289-2.7891-17.5-0.71094-7-1.3945-11.211-5.6055-11.895-5.6055-0.71094-7.7109 4.8945-18.211 30.789-5.6055 14.711-7 18.895-4.8945 23.789 3.5 7 11.895 9.7891 18.211 10.5h3.5c6.2891 0 11.895-2.1055 14-5.6055 2.7891-4.2109 1.3945-7.7109 0-14.711-1.3945-3.5-2.7891-9.1055-4.2109-16.105zm-0.71094 26.578c-1.3945 2.1055-6.2891 2.7891-11.211 2.7891-6.2891 0-11.211-3.5-12.605-6.2891-0.71094-1.3945 0-4.2109 5.6055-18.211 3.5-9.7891 7-18.211 9.7891-23.105v2.7891c0 4.2109 1.3945 10.5 3.5 18.211 1.3945 7.7109 3.5 12.605 4.2109 16.789 2.1055 5.6055 2.1055 7 1.3945 8.3945z"/>
 <path d="m343.71 435.39c-4.8945-6.2891-7.7109-11.211-10.5-14.711-3.5-5.6055-6.2891-9.1055-10.5-8.3945-4.8945 1.3945-4.8945 9.1055-2.7891 35.711 1.3945 16.105 2.1055 20.289 5.6055 23.105 2.7891 2.1055 7 3.5 11.211 3.5 4.2109 0 7.7109-0.71094 10.5-2.1055 7.7109-2.7891 12.605-7 13.289-12.605 0.71094-4.8945-2.1055-7.7109-6.2891-13.289-2.7891-2.7891-6.2891-7-10.5-12.605zm1.3945 30.816c-5.6055 2.1055-11.895 2.1055-14.711 0-1.3945-1.3945-2.1055-3.5-2.7891-18.211-0.71094-10.5-1.3945-20.289-1.3945-25.895 0 0.71094 0.71094 1.3945 1.3945 2.1055 2.1055 3.5 5.6055 8.3945 10.5 14.711 4.8945 5.6055 8.3945 9.7891 11.211 12.605 4.2109 4.2109 4.8945 5.6055 4.8945 7 0 2.7891-4.2109 5.6055-9.1055 7z"/>
</svg>
